<?xml version="1.0" encoding="UTF-8" standalone="no"?>
<!-- Created with Inkscape (http://www.inkscape.org/) -->

<svg
   width="800"
   height="200"
   viewBox="0 0 211.66666 52.916666"
   version="1.1"
   id="svg1"
   inkscape:version="1.4.4 (dcaf3e7d9e, 2026-05-05)"
   sodipodi:docname="yyc.svg"
   xmlns:inkscape="http://www.inkscape.org/namespaces/inkscape"
   xmlns:sodipodi="http://sodipodi.sourceforge.net/DTD/sodipodi-0.dtd"
   xmlns="http://www.w3.org/2000/svg"
   xmlns:svg="http://www.w3.org/2000/svg">
  <sodipodi:namedview
     id="namedview1"
     pagecolor="#ffffff"
     bordercolor="#000000"
     borderopacity="0.25"
     inkscape:showpageshadow="2"
     inkscape:pageopacity="0.0"
     inkscape:pagecheckerboard="0"
     inkscape:deskcolor="#d1d1d1"
     inkscape:document-units="mm"
     inkscape:zoom="0.97281145"
     inkscape:cx="1371.7972"
     inkscape:cy="67.844596"
     inkscape:window-width="3440"
     inkscape:window-height="1300"
     inkscape:window-x="0"
     inkscape:window-y="0"
     inkscape:window-maximized="1"
     inkscape:current-layer="layer1" />
  <defs
     id="defs1" />
  <g
     inkscape:label="Layer 1"
     inkscape:groupmode="layer"
     id="layer1">
    <ellipse
       style="fill:#502d16;stroke-width:0.264583"
       id="path1"
       cx="28.285713"
       cy="26.38187"
       rx="23.662085"
       ry="22.302198" />
    <ellipse
       style="fill:#deaa87;stroke-width:0.264583"
       id="path2"
       cx="25.837912"
       cy="11.423078"
       rx="3.8076923"
       ry="3.5357144" />
    <circle
       style="fill:#deaa87;stroke-width:0.264583"
       id="path3"
       cx="42.020607"
       cy="27.877748"
       r="3.9436812" />
    <ellipse
       style="fill:#deaa87;stroke-width:0.264583"
       id="path4"
       cx="29.373627"
       cy="23.934067"
       rx="1.9038461"
       ry="2.7197802" />
    <circle
       style="fill:#deaa87;stroke-width:0.264583"
       id="path5"
       cx="17.134615"
       cy="22.302197"
       r="2.1758239" />
    <ellipse
       style="fill:#deaa87;stroke-width:0.264583"
       id="path6"
       cx="15.502747"
       cy="34.6772"
       rx="3.2637365"
       ry="3.1277473" />
    <ellipse
       style="fill:#e9c6af;stroke-width:0.264583"
       id="path7"
       cx="32.501373"
       cy="44.06044"
       rx="3.1277473"
       ry="2.9917583" />
    <ellipse
       style="fill:#e9c6af;stroke-width:0.264583"
       id="path8"
       cx="41.476646"
       cy="19.582417"
       rx="3.1277473"
       ry="2.9917583" />
    <ellipse
       style="fill:#c87137;stroke-width:0.264583"
       id="path9"
       cx="27.46978"
       cy="32.637363"
       rx="2.9917583"
       ry="3.2637365" />
    <ellipse
       style="fill:#c87137;stroke-width:0.264583"
       id="path10"
       cx="33.453297"
       cy="16.182693"
       rx="1.9038461"
       ry="1.7678572" />
    <ellipse
       style="fill:#c87137;stroke-width:0.264583"
       id="path11"
       cx="13.462912"
       cy="13.190934"
       rx="3.1277473"
       ry="2.583791" />
    <ellipse
       style="fill:#c87137;stroke-width:0.264583"
       id="path12"
       cx="6.5274725"
       cy="29.373627"
       rx="2.4478021"
       ry="2.7197802" />
    <ellipse
       style="fill:#deaa87;stroke-width:0.264583"
       id="path13"
       cx="20.806318"
       cy="46.372253"
       rx="3.6717033"
       ry="2.0398352" />
    <ellipse
       style="fill:#deaa87;stroke-width:0.264583"
       id="path14"
       cx="45.28434"
       cy="39.436813"
       rx="2.583791"
       ry="3.8076923" />
    <ellipse
       style="fill:#deaa87;stroke-width:0.264583"
       id="path15"
       cx="41.06868"
       cy="10.335165"
       rx="4.0796704"
       ry="3.2637365" />
    <path
       style="font-size:25.4px;font-family:'18thCentury';-inkscape-font-specification:'18thCentury, Normal';white-space:pre;inline-size:150.94;fill:#deaa87;stroke-width:0.265"
       d="m 86.626953,10.607142 q -0.756543,0 -0.744141,-0.496093 0,-0.4464847 0.84336,-0.3472659 0.843359,-0.049609 0.843359,-0.8929688 V 3.4137832 h 2.331641 v 5.4570311 q 0,0.8433594 0.843359,0.8929688 0.694531,0 0.694531,0.3968749 0,0.446484 -0.682129,0.446484 z M 87.569531,3.4137832 V 4.7532363 L 84.543359,-0.40613864 Q 83.898437,-1.5471542 83.402344,-1.646373 q -0.644922,0.049609 -0.644922,-0.396875 0,-0.4464844 0.644922,-0.4464844 h 3.621484 q 0.744141,0 0.744141,0.4464844 0,0.4464844 -0.744141,0.396875 -0.79375,0.1984375 -0.09922,1.38906249 l 2.306836,3.67109371 z m 2.331641,0 v 0.6945312 l 2.976562,-4.71289053 q 0.595313,-0.89296877 1.190625,-0.94257807 0.694531,0 0.694531,-0.4960938 -0.04961,-0.4960937 -0.694531,-0.4960937 h -3.075781 q -0.644922,0 -0.644922,0.4960937 0.04961,0.4464844 0.694531,0.3472656 0.84336,0.1984375 0.595313,1.09140627 L 89.231445,3.4137832 Z m 9.921874,-0.8929688 q 0.446484,0.049609 0.446484,0.4464844 0,0.396875 -0.496093,0.396875 -0.446484,0 -0.496094,0.6945312 V 7.63058 q -0.04961,1.8851562 1.885157,2.0835937 1.63711,-0.2480469 1.68672,-1.7859375 l 0.64492,0.1488282 Q 103.34531,10.557533 100.6168,10.607142 97.243359,10.557533 97.342578,7.63058 V 4.1083144 Q 97.292968,3.4633926 96.896093,3.4137832 96.499218,3.3641738 96.499218,2.9176894 96.449609,2.4712051 96.896093,2.5208144 Z m 5.506644,0.049609 q 0.49609,0 0.49609,0.4464844 0,0.4464844 -0.39687,0.4464844 -0.4961,0 -0.44649,0.5953124 v 4.0183594 1.4386718 q 0,0.4464844 0.14883,0.5705078 0.14883,0.124023 0.0992,0.347266 -0.0496,0.223242 -0.74414,0.272851 l -0.99219,0.347266 q -0.64492,0.04961 -0.64492,-0.84336 V 4.0090957 q 0,-0.5457031 -0.4961,-0.5953125 -0.44648,0 -0.44648,-0.4464844 0,-0.4464844 0.49609,-0.396875 z m 13.09687,8.0367182 q -0.44648,-0.04961 -0.44648,-0.446484 -0.0496,-0.3844726 0.39687,-0.3348632 0.4961,-0.049609 0.59531,-0.6821289 V 5.4849746 q 0.0496,-1.7487305 -1.88515,-1.947168 -1.63711,0.2480469 -1.68672,1.7611328 l -0.64492,-0.1488281 q 0.14883,-2.4432617 2.87734,-2.4804687 3.32383,0.2356445 3.27422,2.815332 v 3.6586913 q 0.0496,0.5333008 0.49609,0.5829102 0.44649,0.049609 0.4961,0.4836909 0,0.396875 -0.54571,0.396875 z m -10.41797,0 q -0.49609,0 -0.49609,-0.396875 0,-0.3968745 0.44648,-0.3968745 0.39688,-0.049609 0.39688,-0.5953125 V 5.1005019 3.6618301 q 0,-0.4464844 -0.14883,-0.5705079 -0.14883,-0.1240234 -0.0992,-0.3472656 0.0496,-0.2232422 0.74414,-0.2728515 l 0.99219,-0.3472656 q 0.64492,-0.049609 0.64492,0.8433593 v 6.1515624 q 0,0.6449219 0.4961,0.6449219 0.39687,0.049609 0.39687,0.4960939 0,0.347265 -0.44648,0.347265 z m 5.50664,0 q -0.44648,-0.04961 -0.44648,-0.446484 -0.0496,-0.3968749 0.39687,-0.3968749 0.54571,0 0.59532,-0.5829102 V 5.4849746 q 0.0496,-1.7611328 -1.88516,-1.947168 -1.63711,0.2356445 -1.68672,1.7487305 l -0.64492,-0.1488282 q 0.14883,-2.4432616 2.87734,-2.4680663 3.32383,0.2232422 3.27422,2.9145507 v 3.5470703 q 0.0496,0.4836914 0.4961,0.5829101 0.39687,0.049609 0.39687,0.4464843 0,0.446484 -0.44648,0.446484 z m 13.54336,0 q -0.75654,0 -0.74414,-0.496093 0,-0.4464847 0.84336,-0.3472659 0.84336,-0.049609 0.84336,-0.8929688 V 3.4137832 h 2.33164 v 5.4570311 q 0,0.8433594 0.84336,0.8929688 0.69453,0 0.69453,0.3968749 0,0.446484 -0.68213,0.446484 z m 0.94258,-7.1933588 V 4.7532363 L 124.975,-0.40613864 q -0.64492,-1.14101556 -1.14102,-1.24023436 -0.64492,0.049609 -0.64492,-0.396875 0,-0.4464844 0.64492,-0.4464844 h 3.62149 q 0.74414,0 0.74414,0.4464844 0,0.4464844 -0.74414,0.396875 -0.79375,0.1984375 -0.0992,1.38906249 l 2.30684,3.67109371 z m 2.33164,0 v 0.6945312 l 2.97656,-4.71289053 q 0.59532,-0.89296877 1.19063,-0.94257807 0.69453,0 0.69453,-0.4960938 -0.0496,-0.4960937 -0.69453,-0.4960937 h -3.07578 q -0.64492,0 -0.64492,0.4960937 0.0496,0.4464844 0.69453,0.3472656 0.84336,0.1984375 0.59531,1.09140627 l -2.40605,4.01835933 z m 9.92188,-0.8929688 q 0.44648,0.049609 0.44648,0.4464844 0,0.396875 -0.49609,0.396875 -0.44649,0 -0.4961,0.6945312 V 7.63058 q -0.0496,1.8851562 1.88516,2.0835937 1.63711,-0.2480469 1.68672,-1.7859375 l 0.64492,0.1488282 q -0.14883,2.4804686 -2.87734,2.5300776 -3.37344,-0.04961 -3.27422,-2.976562 V 4.1083144 q -0.0496,-0.6449218 -0.44649,-0.6945312 -0.39687,-0.049609 -0.39687,-0.4960938 -0.0496,-0.4464843 0.39687,-0.396875 z m 5.50664,0.049609 q 0.49609,0 0.49609,0.4464844 0,0.4464844 -0.39687,0.4464844 -0.4961,0 -0.44649,0.5953124 v 4.0183594 1.4386718 q 0,0.4464844 0.14883,0.5705078 0.14883,0.124023 0.0992,0.347266 -0.0496,0.223242 -0.74414,0.272851 l -0.99219,0.347266 q -0.64492,0.04961 -0.64492,-0.84336 V 4.0090957 q 0,-0.5457031 -0.4961,-0.5953125 -0.44648,0 -0.44648,-0.4464844 0,-0.4464844 0.49609,-0.396875 z m 13.09687,8.0367182 q -0.44649,-0.04961 -0.44649,-0.446484 -0.0496,-0.3844726 0.39688,-0.3348632 0.49609,-0.049609 0.59531,-0.6821289 V 5.4849746 q 0.0496,-1.7487305 -1.88515,-1.947168 -1.63711,0.2480469 -1.68672,1.7611328 L 155.1871,5.1501113 q 0.14883,-2.4432617 2.87735,-2.4804687 3.32383,0.2356445 3.27422,2.815332 v 3.6586913 q 0.0496,0.5333008 0.49609,0.5829102 0.44649,0.049609 0.49609,0.4836909 0,0.396875 -0.5457,0.396875 z m -10.41797,0 q -0.49609,0 -0.49609,-0.396875 0,-0.3968745 0.44648,-0.3968745 0.39688,-0.049609 0.39688,-0.5953125 V 5.1005019 3.6618301 q 0,-0.4464844 -0.14883,-0.5705079 -0.14883,-0.1240234 -0.0992,-0.3472656 0.0496,-0.2232422 0.74414,-0.2728515 l 0.99219,-0.3472656 q 0.64492,-0.049609 0.64492,0.8433593 v 6.1515624 q 0,0.6449219 0.49609,0.6449219 0.39688,0.049609 0.39688,0.4960939 0,0.347265 -0.44649,0.347265 z m 5.50664,0 q -0.44648,-0.04961 -0.44648,-0.446484 -0.0496,-0.3968749 0.39687,-0.3968749 0.5457,0 0.59531,-0.5829102 V 5.4849746 q 0.0496,-1.7611328 -1.88515,-1.947168 -1.63711,0.2356445 -1.68672,1.7487305 l -0.64492,-0.1488282 q 0.14882,-2.4432616 2.87734,-2.4680663 3.32383,0.2232422 3.27422,2.9145507 v 3.5470703 q 0.0496,0.4836914 0.49609,0.5829101 0.39688,0.049609 0.39688,0.4464843 0,0.446484 -0.44649,0.446484 z m 16.66875,0.03721 q -6.74687,0.161231 -6.99492,-6.2879877 0.19844,-6.498828 5.90352,-6.5980468 h 1.68672 q 2.38125,0.396875 2.85254,0.8433594 0.47129,0.44648435 1.0666,-0.5953125 0.64492,0.049609 0.64492,0.8557617 v 2.6789062 q 0,0.7689453 -0.60772,0.8185547 -0.78134,-0.037207 -1.32705,-1.62470703 -1.28984,-2.18281247 -3.02617,-2.18281247 -1.73633,-0.049609 -3.24941,1.24023436 -1.51309,1.28984374 -1.41387,4.56406244 0.0496,2.7285156 1.36426,3.9935546 1.31465,1.2650391 3.05098,1.3642578 1.5875,-0.099219 2.60449,-1.1410156 1.01699,-1.0417969 1.36426,-1.7611328 0.34726,-0.7193359 0.95498,-0.7193359 l -0.0124,2.6292968 q -0.89297,0.7441406 -2.05879,1.2898438 -1.16582,0.533301 -2.80293,0.632519 z m 10.70323,-0.03721 q -3.60908,-0.186035 -4.05557,-3.5222651 l -0.0496,-0.7441406 q 0.22324,-3.4478515 3.99356,-3.6710937 v 0 q 4.14238,0.1984375 4.29121,3.720703 V 7.1344863 Q 185.3,10.309486 181.31885,10.607142 Z m -0.33487,-7.0941401 q -1.83554,0.2480469 -1.98437,2.8773437 v 0.6449219 q 0.24805,2.5796875 2.48047,2.8277343 1.98437,-0.2480468 2.18281,-2.8277343 V 6.3903456 q -0.19844,-2.926953 -2.67891,-2.8773437 z m 10.25674,7.0941401 q -3.60908,-0.186035 -4.05556,-3.5222651 l -0.0496,-0.7441406 q 0.22324,-3.4478515 3.99355,-3.6710937 v 0 q 4.14238,0.1984375 4.29121,3.720703 v 0.7441407 q -0.19844,3.1749997 -4.17959,3.4726557 z m -0.33486,-7.0941401 q -1.83555,0.2480469 -1.98438,2.8773437 v 0.6449219 q 0.24805,2.5796875 2.48047,2.8277343 1.98438,-0.2480468 2.18282,-2.8277343 V 6.3903456 q -0.19844,-2.926953 -2.67891,-2.8773437 z m 6.79648,7.0941401 q -0.44648,0 -0.44648,-0.396875 0,-0.3968745 0.39687,-0.3968745 0.44649,0 0.39688,-0.5953125 V 4.9020644 q 0.0992,-5.35781241 -0.27285,-5.60585928 -0.37207,-0.24804687 0.0248,-0.62011722 0.79375,-0.5208984 1.88516,-0.8185546 0.44648,-0.099219 0.49609,0.7441406 V 8.9700331 q 0,0.7441406 0.4961,0.7441406 0.39687,0.049609 0.44648,0.4960933 0.0496,0.446485 -0.49609,0.396875 z m 2.48047,-5.2585932 2.53008,-1.984375 q -0.49609,-0.049609 -0.39687,-0.3720703 0.0992,-0.3224609 0.86816,-0.396875 l 1.51309,-0.024805 q 0.74414,0.099219 0.74414,0.5457031 -0.0496,0.3472657 -0.44649,0.3472657 -0.39687,0 -1.24023,0.5953124 l -3.02617,2.0339844 4.16718,3.0757812 q 0.59532,0.4464844 1.09141,0.5457031 0.49609,0.049609 0.49609,0.4960933 0,0.496094 -0.5457,0.396875 h -2.33164 q -0.59531,0 -0.64492,-0.396875 -0.0496,-0.3968745 0.74414,-0.4960933 l -3.52227,-2.4308593 z m 10.09551,-6.8460937 q -1.11621,0.099219 -1.11621,1.09140626 0,1.05419921 1.04179,1.07900389 1.0666,-0.0124023 1.11621,-0.93017576 0.0744,-1.09140619 -1.04179,-1.24023439 z m -1.61231,12.1542969 q -0.49609,-0.0124 -0.5457,-0.496094 0.0496,-0.4464843 0.5457,-0.3968749 0.54571,0 0.59532,-0.5953125 V 5.1501113 q -0.0496,-0.6449219 -0.32247,-0.7193359 -0.27285,-0.074414 -0.27285,-0.396875 0,-0.322461 0.89297,-0.6945313 0.89297,-0.3844726 1.40147,-0.2728515 0.50849,0.1116211 0.45888,0.7937499 l -0.0248,5.159375 q 0.0496,0.6449218 0.64492,0.6945312 0.59531,0 0.64492,0.4464843 0.0372,0.483691 -0.64492,0.483691 z m 9.42579,-7.4414063 q -1.98438,0.2480469 -2.03399,3.1749999 v 0.9921875 q 0.24805,2.1332031 1.88516,2.3316406 1.24023,0 1.51308,-0.4216797 0.27286,-0.4216797 0.57051,-0.8185546 0.29766,-0.396875 0.99219,-0.099219 0.79375,0.5457031 0.5209,1.0666016 -0.27285,0.5208984 -0.99219,0.8433598 -0.71934,0.32246 -2.56728,0.32246 -3.75791,-0.148828 -4.10518,-3.5222651 l -0.0496,-0.79375 q 0.29766,-3.6214843 4.01836,-3.8199218 1.93477,0.099219 2.77812,0.6945312 0.84336,0.5953125 1.11622,1.2154297 0.27285,0.6201172 0.31005,1.4882812 0.0124,0.9177734 -0.58291,0.9177734 h -5.40742 L 216.0082,5.646205 h 3.72071 q 0.44648,0 0.39687,-0.3472656 -0.0496,-0.3472656 -0.22324,-0.8433594 -0.17363,-0.4960937 -0.5457,-0.8929687 -0.37207,-0.396875 -1.26504,-0.3472656 z m 9.48779,7.3545893 q -1.92236,0.02481 -2.88975,-0.8185543 l -0.0372,0.3968753 q 0.0372,0.558105 -0.5209,0.558105 -0.55811,0 -0.59531,-0.632519 l -0.0372,-1.3642581 q 0.0496,-0.6077149 0.5457,-0.7069336 0.60772,0.049609 1.35186,0.756543 0.45888,0.7441406 2.1208,0.9549804 1.63711,-0.3472656 1.73633,-1.2898437 -0.0992,-1.2402344 -1.98438,-1.5378906 -3.175,-0.3472656 -3.42305,-2.38125 0.28526,-1.661914 3.37344,-2.0339843 1.98438,0.1488281 2.60449,0.9921875 V 3.0169082 q 0,-0.5084961 0.55811,-0.5084961 0.5457,0 0.59531,0.5581055 l -0.0372,1.1906249 q -0.0496,0.6449219 -0.50849,0.7069336 -0.55811,-0.1984375 -1.0542,-0.9549804 -0.63252,-0.7441406 -1.81074,-0.8433594 -1.83555,0.3472656 -1.88516,1.2898437 0.14883,0.9425782 2.28203,1.2402344 2.77813,0.4960937 2.87735,2.778125 -0.16123,2.0711916 -3.26182,2.0959956 z"
       id="text15"
       transform="translate(-28.557691,36.173077)"
       aria-label="YumYumCookies" />
  </g>
</svg>
